name ./resultDataOpenSim/trcMotMarkerGrf/sub06/grf-04-04.mot
datacolumns 19
datarows 30
range 1.60800000 1.72400000
endheader

                time	     ground_force_vx	     ground_force_vy	     ground_force_vz	     ground_force_px	     ground_force_py	     ground_force_pz	   l_ground_force_vx	   l_ground_force_vy	   l_ground_force_vz	   l_ground_force_px	   l_ground_force_py	   l_ground_force_pz	     ground_torque_x	     ground_torque_y	     ground_torque_z	   l_ground_torque_x	   l_ground_torque_y	   l_ground_torque_z	
          1.60800000	        187.49827156	        799.98320070	        -58.81083682	          0.87682341	          0.00000000	          0.12786443	          0.00000000	          0.00000000	          0.00000000	          0.00000000	          0.00000000	          0.00000000	          0.00000000	          4.11969907	          0.00000000	          0.00000000	          0.00000000	          0.00000000	
          1.61200000	        191.67625480	        791.88617498	        -58.66856463	          0.87741839	          0.00000000	          0.12773768	          0.00000000	          0.00000000	          0.00000000	          0.00000000	          0.00000000	          0.00000000	          0.00000000	          4.23148843	          0.00000000	          0.00000000	          0.00000000	          0.00000000	
          1.61600000	        196.00743114	        781.75846394	        -57.88839346	          0.87795828	          0.00000000	          0.12759519	          0.00000000	          0.00000000	          0.00000000	          0.00000000	          0.00000000	          0.00000000	          0.00000000	          4.29972901	          0.00000000	          0.00000000	          0.00000000	          0.00000000	
          1.62000000	        200.42693240	        769.56538999	        -56.57240496	          0.87845257	          0.00000000	          0.12744145	          0.00000000	          0.00000000	          0.00000000	          0.00000000	          0.00000000	          0.00000000	          0.00000000	          4.31897282	          0.00000000	          0.00000000	          0.00000000	          0.00000000	
          1.62400000	        204.70915975	        755.27204871	        -54.88578667	          0.87894312	          0.00000000	          0.12726599	          0.00000000	          0.00000000	          0.00000000	          0.00000000	          0.00000000	          0.00000000	          0.00000000	          4.29315782	          0.00000000	          0.00000000	          0.00000000	          0.00000000	
          1.62800000	        208.54188825	        738.82454019	        -53.01081321	          0.87944017	          0.00000000	          0.12705905	          0.00000000	          0.00000000	          0.00000000	          0.00000000	          0.00000000	          0.00000000	          0.00000000	          4.23460619	          0.00000000	          0.00000000	          0.00000000	          0.00000000	
          1.63200000	        211.57917455	        720.11110461	        -51.11321817	          0.87994458	          0.00000000	          0.12682434	          0.00000000	          0.00000000	          0.00000000	          0.00000000	          0.00000000	          0.00000000	          0.00000000	          4.15925287	          0.00000000	          0.00000000	          0.00000000	          0.00000000	
          1.63600000	        213.48519553	        698.95824585	        -49.31664424	          0.88048362	          0.00000000	          0.12656700	          0.00000000	          0.00000000	          0.00000000	          0.00000000	          0.00000000	          0.00000000	          0.00000000	          4.08009614	          0.00000000	          0.00000000	          0.00000000	          0.00000000	
          1.64000000	        214.00655019	        675.17042236	        -47.69354474	          0.88109687	          0.00000000	          0.12628450	          0.00000000	          0.00000000	          0.00000000	          0.00000000	          0.00000000	          0.00000000	          0.00000000	          4.00184588	          0.00000000	          0.00000000	          0.00000000	          0.00000000	
          1.64400000	        213.02797527	        648.56995019	        -46.25092669	          0.88180610	          0.00000000	          0.12597636	          0.00000000	          0.00000000	          0.00000000	          0.00000000	          0.00000000	          0.00000000	          0.00000000	          3.91908285	          0.00000000	          0.00000000	          0.00000000	          0.00000000	
          1.64800000	        210.54865711	        619.01409840	        -44.90557144	          0.88258641	          0.00000000	          0.12564848	          0.00000000	          0.00000000	          0.00000000	          0.00000000	          0.00000000	          0.00000000	          0.00000000	          3.81837489	          0.00000000	          0.00000000	          0.00000000	          0.00000000	
          1.65200000	        206.60776220	        586.40797334	        -43.48640382	          0.88337767	          0.00000000	          0.12531773	          0.00000000	          0.00000000	          0.00000000	          0.00000000	          0.00000000	          0.00000000	          0.00000000	          3.68300144	          0.00000000	          0.00000000	          0.00000000	          0.00000000	
          1.65600000	        201.24032228	        550.73288970	        -41.76999052	          0.88412506	          0.00000000	          0.12500657	          0.00000000	          0.00000000	          0.00000000	          0.00000000	          0.00000000	          0.00000000	          0.00000000	          3.49819670	          0.00000000	          0.00000000	          0.00000000	          0.00000000	
          1.66000000	        194.48299118	        512.06544466	        -39.52071265	          0.88478515	          0.00000000	          0.12471649	          0.00000000	          0.00000000	          0.00000000	          0.00000000	          0.00000000	          0.00000000	          0.00000000	          3.25521139	          0.00000000	          0.00000000	          0.00000000	          0.00000000	
          1.66400000	        186.37747052	        470.55328623	        -36.53597379	          0.88530615	          0.00000000	          0.12441740	          0.00000000	          0.00000000	          0.00000000	          0.00000000	          0.00000000	          0.00000000	          0.00000000	          2.95355734	          0.00000000	          0.00000000	          0.00000000	          0.00000000	
          1.66800000	        176.93961129	        426.39349667	        -32.70383033	          0.88562943	          0.00000000	          0.12408396	          0.00000000	          0.00000000	          0.00000000	          0.00000000	          0.00000000	          0.00000000	          0.00000000	          2.60180856	          0.00000000	          0.00000000	          0.00000000	          0.00000000	
          1.67200000	        166.11608551	        379.91555705	        -28.04701060	          0.88569982	          0.00000000	          0.12373447	          0.00000000	          0.00000000	          0.00000000	          0.00000000	          0.00000000	          0.00000000	          0.00000000	          2.21756975	          0.00000000	          0.00000000	          0.00000000	          0.00000000	
          1.67600000	        153.76476277	        331.77811166	        -22.73548011	          0.88548454	          0.00000000	          0.12341705	          0.00000000	          0.00000000	          0.00000000	          0.00000000	          0.00000000	          0.00000000	          0.00000000	          1.82661355	          0.00000000	          0.00000000	          0.00000000	          0.00000000	
          1.68000000	        139.68837148	        283.12634844	        -17.07852136	          0.88503713	          0.00000000	          0.12317371	          0.00000000	          0.00000000	          0.00000000	          0.00000000	          0.00000000	          0.00000000	          0.00000000	          1.46047644	          0.00000000	          0.00000000	          0.00000000	          0.00000000	
          1.68400000	        123.73850508	        235.54561544	        -11.49415703	          0.88455916	          0.00000000	          0.12303974	          0.00000000	          0.00000000	          0.00000000	          0.00000000	          0.00000000	          0.00000000	          0.00000000	          1.15184109	          0.00000000	          0.00000000	          0.00000000	          0.00000000	
          1.68800000	        105.97434970	        190.81273569	         -6.44092991	          0.88445100	          0.00000000	          0.12306995	          0.00000000	          0.00000000	          0.00000000	          0.00000000	          0.00000000	          0.00000000	          0.00000000	          0.92797103	          0.00000000	          0.00000000	          0.00000000	          0.00000000	
          1.69200000	         86.80958611	        150.56089043	         -2.32279197	          0.88537377	          0.00000000	          0.12331733	          0.00000000	          0.00000000	          0.00000000	          0.00000000	          0.00000000	          0.00000000	          0.00000000	          0.80372915	          0.00000000	          0.00000000	          0.00000000	          0.00000000	
          1.69600000	         67.04873608	        115.95870178	          0.59534912	          0.88812797	          0.00000000	          0.12378629	          0.00000000	          0.00000000	          0.00000000	          0.00000000	          0.00000000	          0.00000000	          0.00000000	          0.77654681	          0.00000000	          0.00000000	          0.00000000	          0.00000000	
          1.70000000	         47.75059576	         87.48212001	          2.22976853	          0.89359591	          0.00000000	          0.12435102	          0.00000000	          0.00000000	          0.00000000	          0.00000000	          0.00000000	          0.00000000	          0.00000000	          0.82561146	          0.00000000	          0.00000000	          0.00000000	          0.00000000	
          1.70400000	         29.95872745	         64.85541163	          2.67134038	          0.90282049	          0.00000000	          0.12461567	          0.00000000	          0.00000000	          0.00000000	          0.00000000	          0.00000000	          0.00000000	          0.00000000	          0.91649363	          0.00000000	          0.00000000	          0.00000000	          0.00000000	
          1.70800000	         14.42214456	         47.19163921	          2.13861572	          0.91595726	          0.00000000	          0.12395685	          0.00000000	          0.00000000	          0.00000000	          0.00000000	          0.00000000	          0.00000000	          0.00000000	          1.01071558	          0.00000000	          0.00000000	          0.00000000	          0.00000000	
          1.71200000	          1.42128540	         33.28401274	          0.90950280	          0.93251938	          0.00000000	          0.12176674	          0.00000000	          0.00000000	          0.00000000	          0.00000000	          0.00000000	          0.00000000	          0.00000000	          1.07759761	          0.00000000	          0.00000000	          0.00000000	          0.00000000	
          1.71600000	         -9.23908229	         21.94235203	         -0.73676443	          0.95173537	          0.00000000	          0.11762598	          0.00000000	          0.00000000	          0.00000000	          0.00000000	          0.00000000	          0.00000000	          0.00000000	          1.10381720	          0.00000000	          0.00000000	          0.00000000	          0.00000000	
          1.72000000	        -18.06411024	         12.25740374	         -2.54677428	          0.97248307	          0.00000000	          0.11099249	          0.00000000	          0.00000000	          0.00000000	          0.00000000	          0.00000000	          0.00000000	          0.00000000	          1.09595753	          0.00000000	          0.00000000	          0.00000000	          0.00000000	
          1.72400000	          0.00000000	          0.00000000	          0.00000000	          0.00000000	          0.00000000	          0.00000000	          0.00000000	          0.00000000	          0.00000000	          0.00000000	          0.00000000	          0.00000000	          0.00000000	          0.00000000	          0.00000000	          0.00000000	          0.00000000	          0.00000000	
